<!-- Generated by IcoMoon.io -->
<svg version="1.1" xmlns="http://www.w3.org/2000/svg" width="64" height="64" viewBox="0 0 64 64">
<title>figma</title>
<path fill="#f24e1e" d="M32 32c0-5.891 4.776-10.667 10.667-10.667s10.667 4.776 10.667 10.667v0c0 5.891-4.776 10.667-10.667 10.667s-10.667-4.776-10.667-10.667v0zM10.667 53.333c0-5.891 4.776-10.667 10.667-10.667v0h10.667v10.667c0 5.891-4.776 10.667-10.667 10.667s-10.667-4.776-10.667-10.667v0zM32 0v21.333h10.667c5.891 0 10.667-4.776 10.667-10.667s-4.776-10.667-10.667-10.667v0h-10.667zM10.667 10.667c0 5.891 4.776 10.667 10.667 10.667v0h10.667v-21.333h-10.667c-5.891 0-10.667 4.776-10.667 10.667v0zM10.667 32c0 5.891 4.776 10.667 10.667 10.667v0h10.667v-21.333h-10.667c-5.891 0-10.667 4.776-10.667 10.667v0z"></path>
</svg>
