<!-- Generated by IcoMoon.io -->
<svg version="1.1" xmlns="http://www.w3.org/2000/svg" width="64" height="64" viewBox="0 0 32 32">
<title>heroku</title>
<path fill="#430098" d="M27.48 0h-22.96c-1.601 0-2.88 1.28-2.88 2.88v26.241c0 1.597 1.279 2.879 2.88 2.879h22.96c1.6 0 2.879-1.281 2.879-2.879v-26.241c0.001-1.6-1.277-2.88-2.879-2.88zM28.76 29.121c0 0.719-0.561 1.28-1.28 1.28h-22.96c-0.72 0-1.28-0.561-1.28-1.28v-26.241c0-0.72 0.56-1.281 1.28-1.281h22.96c0.719 0 1.28 0.561 1.28 1.281v26.241zM8.84 27.199l3.6-3.199-3.6-3.2v6.399zM21.8 14.24c-0.639-0.64-1.839-1.44-3.839-1.44-2.161 0-4.401 0.561-6 1.12v-9.12h-3.2v13.84l2.24-1.040s3.68-1.68 6.88-1.68c1.6 0 2 0.88 2 1.68v9.6h3.2v-9.6c0.079-0.239 0.079-2.001-1.281-3.36zM17.56 10h3.2c1.44-1.68 2.16-3.361 2.4-5.2h-3.199c-0.321 1.839-1.121 3.52-2.401 5.2z"></path>
</svg>
