<!-- Generated by IcoMoon.io -->
<svg version="1.1" xmlns="http://www.w3.org/2000/svg" width="64" height="64" viewBox="0 0 32 32">
<title>laravel</title>
<path fill="#e74430" d="M8.616 17.699l18.267-4.376c-1.011-1.436-5.607-7.951-6.049-8.569-0.5-0.699 0.011-1.025 0.823-1.16 0.811-0.139 7.8-1.312 8.397-1.399 0.503-0.073 0.92-0.236 1.616 0.409-0.64-1.523-2.151-2.593-3.911-2.593h-23.496c-2.071 0-3.792 1.479-4.164 3.443l8.517 14.245z"></path>
<path fill="#e74430" d="M30.316 3.843c-0.275 0.059-6.353 1.159-6.727 1.209-0.373 0.049-0.251 0.259-0.099 0.473l5.348 7.336 3.161-0.777v-6.841c-0.44-0.56-0.759-0.972-0.835-1.081-0.34-0.459-0.576-0.383-0.849-0.319zM32 20.172c-1.553-2.131-3.248-4.448-3.409-4.677-0.221-0.32-0.34-0.38-0.864-0.212l-17.808 4.636s5.467 9.472 5.885 10.072c0.42 0.608 0.677 0.557 1.004 0.419 0.241-0.107 10.395-3.539 15.191-5.163v-5.071l0.001-0.004zM32 17.039v-2.677l-1.667 0.445 1.667 2.232zM21.068 31.989h6.692c2.233 0 4.063-1.725 4.228-3.915-3.417 1.236-7.844 2.819-10.921 3.915zM7.396 20.573l-7.396 1.927v5.248c0.023 2.343 1.921 4.243 4.26 4.243h9.592c-1.255-2.049-4.671-8.204-6.444-11.417zM5.915 17.815l-5.892-10.176v12.131l5.771-1.377c0.471-0.109 0.359-0.171 0.127-0.576z"></path>
<path fill="#e74430" d="M30.193 14.612l1.807-0.491v0.84l-1.239 0.415-0.568-0.764z"></path>
</svg>
