<!-- Generated by IcoMoon.io -->
<svg version="1.1" xmlns="http://www.w3.org/2000/svg" width="64" height="64" viewBox="0 0 32 32">
<title>nuxt-dot-js</title>
<path fill="#00c58e" d="M26.299 27.029l0.031-0.060c0.025-0.044 0.049-0.096 0.069-0.149l0.002-0.007 0.003-0.007c0.061-0.16 0.096-0.344 0.096-0.537 0-0.096-0.009-0.191-0.026-0.282l0.001 0.009 0.001 0.009c-0.056-0.313-0.166-0.592-0.319-0.841l0.006 0.010 0.007 0.011-7.089-12.471-1.083-1.893-8.161 14.364c-0.129 0.233-0.225 0.504-0.27 0.791l-0.002 0.014-0.001 0.015c-0.017 0.089-0.026 0.192-0.026 0.296 0 0.236 0.049 0.461 0.137 0.665l-0.004-0.011-0.004-0.011c0.022 0.053 0.044 0.098 0.069 0.141l-0.003-0.005-0.003-0.005c0.213 0.367 0.667 0.803 1.667 0.803h13.197c0.209 0 1.233-0.043 1.707-0.849zM17.996 14.608l6.479 11.397h-12.955zM31.661 25.187l-9.355-16.48c-0.096-0.173-0.636-1.049-1.576-1.049-0.423 0-1.029 0.18-1.523 1.047l-1.209 2.12 1.076 1.893 1.667-2.949 9.255 16.24h-3.52c0.014 0.078 0.022 0.168 0.022 0.26 0 0.198-0.036 0.387-0.102 0.561l0.004-0.011 0.004-0.011c-0.023 0.065-0.049 0.12-0.079 0.173l0.003-0.005 0.003-0.005-0.031 0.060c-0.473 0.807-1.496 0.849-1.696 0.849h5.505c0.203 0 1.223-0.043 1.696-0.849 0.209-0.367 0.36-0.983-0.143-1.843zM9.739 27.076c-0.019-0.032-0.039-0.073-0.057-0.114l-0.003-0.009-0.003-0.008c-0.087-0.194-0.138-0.42-0.138-0.658 0-0.103 0.009-0.204 0.028-0.301l-0.002 0.010-0.001 0.009h-7.561l11.239-19.776 3.689 6.485 1.069-1.893-3.216-5.665c-0.089-0.163-0.633-1.036-1.569-1.036-0.423 0-1.029 0.183-1.523 1.049l-11.384 20.016c-0.096 0.173-0.567 1.083-0.1 1.889 0.213 0.367 0.667 0.803 1.667 0.803h9.535c-0.993 0-1.453-0.429-1.667-0.803z"></path>
</svg>
