<!-- Generated by IcoMoon.io -->
<svg version="1.1" xmlns="http://www.w3.org/2000/svg" width="64" height="64" viewBox="0 0 32 32">
<title>rails</title>
<path fill="#c00" d="M27.846 21.081v1.551h2.642c0.541 0 1.471-0.42 1.503-1.594v-0.6c0-1.003-0.776-1.594-1.503-1.594h-1.317v-0.72h2.61v-1.56h-2.505c-0.646 0-1.511 0.566-1.511 1.62v0.54c0 1.054 0.857 1.594 1.511 1.594 1.818 0.009-0.436 0 1.244 0v0.754l-2.675 0.009zM13.689 20.704s1.414-0.129 1.414-2.066c0-1.937-1.713-2.117-1.713-2.117h-3.087v6.111h1.552v-1.474l1.341 1.474h2.295l-1.802-1.929zM13.091 19.452h-1.236v-1.397h1.244s0.347 0.137 0.347 0.694c0 0.557-0.356 0.703-0.356 0.703zM18.933 16.564h-1.576c-1.123 0-1.503 1.080-1.503 1.594v4.474h1.576v-1.071h1.479v1.071h1.527v-4.474c0-1.303-1.115-1.594-1.503-1.594zM18.909 19.83h-1.487v-1.483s0-0.334 0.493-0.334h0.541c0.436 0 0.444 0.334 0.444 0.334v1.483h0.008zM21.156 16.564h1.64v6.069h-1.64v-6.069zM25.099 21.064v-4.5h-1.632v6.069h3.838v-1.569h-2.206z"></path>
<path fill="#c00" d="M0.566 22.632h6.384s-1.22-5.906 2.82-8.297c0.881-0.454 3.685-2.151 8.275 1.449 0.145-0.129 0.283-0.231 0.283-0.231s-4.202-4.449-8.881-3.951c-2.351 0.223-5.244 2.494-6.941 5.494s-1.939 5.537-1.939 5.537z"></path>
<path fill="#c00" d="M0.566 22.632h6.384s-1.22-5.906 2.82-8.297c0.881-0.454 3.685-2.151 8.275 1.449 0.145-0.129 0.283-0.231 0.283-0.231s-4.202-4.449-8.881-3.951c-2.36 0.223-5.253 2.494-6.949 5.494s-1.931 5.537-1.931 5.537zM13.867 12.081l0.032-0.574c-0.073-0.043-0.275-0.146-0.784-0.3l-0.032 0.566c0.267 0.094 0.525 0.197 0.784 0.309z"></path>
<path fill="#c00" d="M13.099 13.898l-0.032 0.54c0.267 0.009 0.533 0.043 0.8 0.103l0.032-0.531c-0.275-0.060-0.541-0.094-0.8-0.111zM10.109 11.224h0.081l-0.162-0.523c-0.251 0-0.509 0.017-0.776 0.051l0.154 0.506c0.234-0.026 0.469-0.034 0.703-0.034zM10.497 14.378l0.186 0.591c0.234-0.12 0.469-0.223 0.703-0.3l-0.178-0.566c-0.275 0.086-0.509 0.18-0.711 0.274zM6.828 12.124l-0.364-0.591c-0.202 0.111-0.412 0.231-0.63 0.369l0.372 0.6c0.21-0.137 0.412-0.266 0.622-0.377zM8.485 15.981l0.388 0.617c0.137-0.214 0.299-0.411 0.477-0.609l-0.364-0.583c-0.186 0.18-0.356 0.377-0.501 0.574zM7.313 18.741l0.655 0.549c0.032-0.334 0.089-0.669 0.17-1.003l-0.582-0.489c-0.105 0.317-0.178 0.634-0.242 0.943zM3.774 14.67l-0.574-0.531c-0.21 0.214-0.412 0.429-0.598 0.643l0.622 0.566c0.17-0.231 0.356-0.463 0.55-0.677zM1.333 18.501l-0.929-0.36c-0.154 0.369-0.323 0.797-0.404 1.029l0.929 0.36c0.105-0.291 0.275-0.711 0.404-1.029zM7.192 20.918c0.016 0.454 0.057 0.823 0.097 1.080l0.97 0.369c-0.073-0.334-0.145-0.711-0.194-1.114l-0.873-0.334z"></path>
</svg>
