<?xml version="1.0" encoding="UTF-8"?>
<svg width="210px" height="350px" viewBox="0 0 1174 350" version="1.1" xmlns="http://www.w3.org/2000/svg" xmlns:xlink="http://www.w3.org/1999/xlink">
    <!-- Generator: Sketch 47 (45396) - http://www.bohemiancoding.com/sketch -->
    <title>storyblok-primary-full</title>
    <desc>Created with Sketch.</desc>
    <defs>
        <linearGradient x1="-0.000499207466%" y1="50.0016494%" x2="99.9999695%" y2="50.0016494%" id="linearGradient-1">
            <stop stop-color="#09B3AF" offset="0%"></stop>
            <stop stop-color="#09B3AF" offset="100%"></stop>
        </linearGradient>
        <linearGradient x1="0.00316255534%" y1="50.0152266%" x2="100.001581%" y2="50.0152266%" id="linearGradient-2">
            <stop stop-color="#09B3AF" offset="0%"></stop>
            <stop stop-color="#09B3AF" offset="100%"></stop>
        </linearGradient>
        <linearGradient x1="-0.000328512581%" y1="49.9998557%" x2="99.9996419%" y2="49.9998557%" id="linearGradient-3">
            <stop stop-color="#09B3AF" offset="0%"></stop>
            <stop stop-color="#09B3AF" offset="100%"></stop>
        </linearGradient>
    </defs>
    <g id="Page-1" stroke="none" stroke-width="1" fill="none" fill-rule="evenodd">
        <g id="storyblok-primary-full" fill-rule="nonzero">
            <g transform="translate(83.000000, 67.000000)">
                <g id="Fonttype" transform="translate(247.000000, 32.000000)" fill="#000000">
                    <path d="M82.0430546,23.3993882 C82.0430546,23.3993882 55.9108398,20.4134309 45.0836977,20.4134309 C29.4031172,20.4134309 21.3766376,26.0160132 21.3766376,37.0333816 C21.3766376,48.9772105 28.0950983,51.7816316 49.9402655,57.7535461 C76.8172374,65.224699 86.5209853,72.314 86.5209853,94.1672007 C86.5209853,122.167592 68.9785118,134.308607 43.7756788,134.308607 C27.159458,134.308607 1.96601271,129.263153 1.96601271,129.263153 L4.01878877,112.646332 C4.01878877,112.646332 29.2184925,116.001622 42.4707892,116.001622 C58.3359944,116.001622 65.6145876,108.909191 65.6145876,95.4629934 C65.6145876,84.6396809 59.828638,80.9056694 40.2302592,76.2295477 C12.6022716,69.1339868 0.657993814,60.7301135 0.657993814,38.5169704 C0.657993814,12.7544819 17.643464,2.10957566 43.2155463,2.10957566 C59.4562594,2.10957566 83.7203228,6.59164145 83.7203228,6.59164145 L82.0430546,23.3993882 Z" id="Shape"></path>
                    <path d="M129.6418,56.2574375 L129.6418,97.3346941 C129.6418,111.34428 130.201932,116.195678 139.908809,116.195678 C145.134626,116.195678 155.213882,115.62603 155.213882,115.62603 L156.149522,131.870388 C156.149522,131.870388 143.641983,134.299217 137.108147,134.299217 C116.013995,134.299217 109.480159,126.452472 109.480159,99.5600773 L109.480159,56.2574375 L97.5390104,56.2574375 L97.5390104,38.8988224 L109.480159,38.8988224 L109.480159,11.8248914 L129.6418,11.8248914 L129.6418,38.8988224 L155.398506,38.8988224 L155.398506,56.2574375 L129.6418,56.2574375 Z" id="Shape"></path>
                    <path d="M250.777492,85.0121431 C250.777492,115.998492 241.258369,134.305477 209.15245,134.305477 C177.234286,134.305477 167.52428,115.998492 167.52428,85.0121431 C167.52428,54.7644589 177.979043,36.8393257 209.15245,36.8393257 C240.322728,36.8424556 250.777492,54.7644589 250.777492,85.0121431 Z M230.243473,85.0121431 C230.243473,63.3561283 225.574659,54.0195345 209.15245,54.0195345 C192.723983,54.0195345 188.058299,63.3561283 188.058299,85.0121431 C188.058299,106.671288 191.788343,117.125268 209.15245,117.125268 C226.510299,117.125268 230.243473,106.671288 230.243473,85.0121431 Z" id="Shape"></path>
                    <path d="M270.929745,38.8956924 L291.085127,38.8956924 L291.085127,50.097727 C291.085127,50.097727 306.947203,39.8284128 322.828054,36.8424556 L322.828054,57.1932878 C305.833196,60.5548372 291.279139,67.0901398 291.279139,67.0901398 L291.279139,132.24598 L270.929745,132.24598 L270.929745,38.8956924 L270.929745,38.8956924 Z" id="Shape"></path>
                    <polygon id="Shape" points="349.695638 38.8956924 369.481771 114.881105 374.519834 114.881105 394.305967 38.8956924 414.45822 38.8956924 378.994636 172.387387 359.020749 172.387387 370.217141 132.24598 354.167311 132.24598 329.721752 38.8956924"></polygon>
                    <path d="M509.846593,84.2672188 C509.846593,122.912516 497.714561,134.305477 464.303753,134.305477 C454.409122,134.305477 430.14193,132.061314 430.14193,132.061314 L430.14193,0.0625986842 L450.300441,0.0625986842 L450.300441,42.4450378 C450.300441,42.4450378 463.1741,36.8424556 473.631993,36.8424556 C499.019451,36.8424556 509.846593,49.3528026 509.846593,84.2672188 Z M489.127949,84.2672188 C489.127949,63.1683322 483.717507,54.9522549 471.206839,54.9522549 C461.315337,54.9522549 450.300441,58.6862664 450.300441,58.6862664 L450.300441,115.438234 C450.300441,115.438234 460.564321,116.192548 464.303753,116.192548 C485.019268,116.195678 489.127949,107.04062 489.127949,84.2672188 Z" id="Shape"></path>
                    <polygon id="Shape" points="531.303735 0.0625986842 551.65313 0.0625986842 551.65313 132.24598 531.303735 132.24598"></polygon>
                    <path d="M656.181989,85.0121431 C656.181989,115.998492 646.659737,134.305477 614.553818,134.305477 C582.632525,134.305477 572.925648,115.998492 572.925648,85.0121431 C572.925648,54.7644589 583.377282,36.8393257 614.553818,36.8393257 C645.724096,36.8424556 656.181989,54.7644589 656.181989,85.0121431 Z M635.644841,85.0121431 C635.644841,63.3561283 630.982285,54.0195345 614.553818,54.0195345 C598.125351,54.0195345 593.459667,63.3561283 593.459667,85.0121431 C593.459667,106.671288 597.19284,117.125268 614.553818,117.125268 C631.911667,117.125268 635.644841,106.671288 635.644841,85.0121431 Z" id="Shape"></path>
                    <polygon id="Shape" points="676.334242 132.24911 676.334242 0.0625986842 696.677378 0.0625986842 696.677378 76.4236036 708.252406 75.2999572 730.282198 38.8956924 753.047359 38.8956924 726.167258 82.5801842 754.536874 132.24598 731.574571 132.24598 708.809409 92.8526283 696.671119 94.1609408 696.671119 132.24598"></polygon>
                </g>
                <g id="Standalone">
                    <path d="M99.8820372,118.257319 L67.9905129,119.883019 C60.5691358,120.223137 57.8359352,123.32788 57.8484872,127.371847 C57.8547632,131.412694 61.2626345,134.576724 67.5009844,134.576724 L100.763816,134.392624 C108.087915,134.367661 112.101421,130.698135 112.092007,126.080024 C112.082593,121.496237 107.265758,117.917202 99.8820372,118.257319 Z" id="Shape" fill="url(#linearGradient-1)"></path>
                    <path d="M105.994867,60.5871009 C105.144468,60.5871009 104.272103,60.6526281 103.3966,60.7836826 L67.071078,66.3160545 C59.8944652,67.3863329 57.1016425,70.6502138 57.1016425,75.1653532 C57.1016425,78.5696497 61.6391948,82.0425938 67.3032902,81.6899948 C68.0062029,81.6899948 68.7216676,81.655671 69.4402702,81.5776624 L103.497017,79.5338364 C110.742665,78.7943146 116.635835,73.879771 116.635835,68.5907861 C116.635835,63.9570736 112.164181,60.5871009 105.994867,60.5871009 Z" id="Shape" fill="url(#linearGradient-2)"></path>
                    <path d="M184.473184,3.06665917 C182.806904,1.31614556 180.44085,0.348838581 177.808065,0.348838581 C177.224397,0.348838581 176.615624,0.398764103 176.006851,0.492374456 L11.7167054,26.3163506 C5.20221123,27.3429441 0.128060407,33.5056257 0.407342673,40.0583504 L5.91767591,169.767976 C6.19068217,176.301979 11.8485015,181.672093 18.4226178,181.750101 L46.5359865,182.065256 L46.5359865,216.623078 L73.1023197,182.355448 L168.940069,183.422606 C175.426321,183.422606 180.782892,178.177306 180.91155,171.733794 L186.908274,10.3121005 C187.074588,7.46322543 186.205361,4.89830175 184.473184,3.06665917 Z M134.986877,95.2416536 C156.912103,96.8205483 154.784537,119.365042 154.784537,119.365042 L154.448771,139.887551 C153.202984,153.414247 142.031693,158.803083 132.539234,158.734436 L123.815586,158.784361 L41.835258,157.579908 C34.5299871,157.50814 28.3355692,151.485874 28.0280449,144.377728 L24.4413075,61.7759524 C24.1337832,54.692769 29.7351185,48.0308322 36.9274214,46.9231097 L134.63542,31.8955276 C134.63542,31.8955276 158.503071,27.9482911 158.019818,51.690997 L156.074257,71.7797788 C155.616108,78.806796 153.312814,92.080744 134.986877,95.2416536 L134.986877,95.2416536 Z" id="Shape" fill="url(#linearGradient-3)"></path>
                </g>
            </g>
        </g>
    </g>
</svg>